<svg width="32" height="32" viewBox="0 0 32 32" fill="none" xmlns="http://www.w3.org/2000/svg">
<rect width="32" height="32" rx="6" fill="#0A0A0A"/>
<path fill-rule="evenodd" clip-rule="evenodd" d="M13.9435 9.79618L13.7183 9.99296C13.6841 10.0124 13.6451 10.0219 13.6057 10.0205L13.1829 9.90862C13.1553 9.90862 13.1277 9.88106 13.0985 9.8535L12.9577 9.6005C12.9301 9.54537 12.9301 9.48805 12.9577 9.45994L13.2392 9.06665C13.2668 9.01153 13.3237 8.98231 13.38 9.01153L13.8301 9.1802C13.8864 9.1802 13.9145 9.20831 13.9145 9.26453L13.999 9.68593C13.9918 9.72734 13.9725 9.7657 13.9435 9.79618ZM16.1665 11.9881L16.2217 11.6226C16.2209 11.5706 16.2013 11.5207 16.1665 11.4821L15.7445 11.2856C15.6893 11.258 15.6319 11.258 15.6038 11.3131L15.266 11.6791C15.2097 11.7353 15.2097 11.7916 15.266 11.8478L15.5475 12.1851C15.5535 12.1909 15.5599 12.1962 15.5668 12.2008L15.5762 12.2069C15.5814 12.2097 15.5867 12.2124 15.5925 12.2149C15.6075 12.2218 15.624 12.2253 15.6405 12.225C15.6571 12.2247 15.6734 12.2207 15.6882 12.2132L16.1102 12.1008C16.1106 12.0938 16.1131 12.0871 16.1174 12.0815C16.1217 12.0754 16.1263 12.0695 16.1312 12.0639C16.1419 12.0523 16.1512 12.0394 16.1588 12.0256C16.1642 12.0138 16.1668 12.001 16.1665 11.9881ZM12.5648 12.6063L12.7055 12.2692C12.7287 12.2229 12.7135 12.1956 12.692 12.1562C12.6876 12.1482 12.6829 12.1394 12.6782 12.1286L12.4248 11.8475C12.3972 11.7924 12.3404 11.7924 12.2841 11.82L11.9184 11.9886C11.8926 12.0018 11.8709 12.022 11.856 12.0468C11.8411 12.0717 11.8334 12.1002 11.834 12.1292L11.9466 12.5787C11.9466 12.6338 12.0018 12.663 12.0589 12.663H12.424C12.5085 12.6906 12.5366 12.6625 12.5648 12.6063ZM15.1255 17.8053C15.0703 17.7777 14.9848 17.721 14.9566 17.6647C14.647 17.215 14.2532 16.7092 13.6902 16.5405C13.5779 16.513 13.2682 16.3719 12.9304 16.147C12.7055 16.0067 12.3959 15.7818 12.2833 15.6412C11.805 15.0231 11.1297 14.6576 10.4262 14.7141C10.3418 14.7141 10.201 14.7968 10.0884 14.8825L10.0608 14.9101C10.0332 14.9376 10.0057 14.9652 10.0057 14.9944C10.0054 14.9893 10.0054 14.9843 10.0057 14.9792C10.0062 14.9726 10.0074 14.9661 10.0092 14.9597L10.0608 14.9101C10.048 14.9115 10.0355 14.9171 10.0262 14.9261C10.017 14.9351 10.011 14.9469 10.0092 14.9597C8.41659 16.5111 7.20838 18.1663 6.57198 19.6312C4.96719 22.9197 6.90867 24.9992 10.2852 23.5098C11.8047 22.8916 13.5776 21.6831 15.1813 20.1094C15.322 19.9129 15.4628 19.7161 15.5191 19.4912C15.6882 18.9292 15.6882 18.0861 15.1255 17.8053ZM14.4499 19.4912C12.9023 20.9795 11.2704 22.0767 9.91955 22.6386C6.51486 24.0442 6.40226 21.7112 7.75288 19.3506C7.80807 19.2385 7.94992 19.2385 8.03437 19.2955C8.51263 19.7453 8.93487 20.251 9.27239 21.0098C9.28998 21.0525 9.32248 21.0875 9.36388 21.1081C9.40528 21.1288 9.45278 21.1338 9.49758 21.1222L10.0321 20.8973C10.1166 20.8698 10.1729 20.757 10.1447 20.6446C9.69463 19.6328 9.13164 18.9866 8.51263 18.4524C8.42818 18.3973 8.42818 18.284 8.48504 18.1997C8.73838 17.8342 8.99172 17.4972 9.30109 17.1317C9.35629 17.0766 9.46999 17.0474 9.52628 17.0766C10.511 17.6388 11.2428 18.5649 11.7211 19.4934C11.7774 19.5777 11.8619 19.6058 11.9745 19.5777L12.4809 19.3247C12.5653 19.2696 12.6216 19.1563 12.5653 19.072C12.0307 18.0321 11.2147 17.0485 10.2016 16.3741C10.1798 16.3585 10.1616 16.3385 10.1482 16.3154C10.1348 16.2922 10.1266 16.2665 10.124 16.2399C10.1213 16.2133 10.1245 16.1865 10.1331 16.1612C10.1417 16.1359 10.1557 16.1127 10.174 16.0932C10.2444 16.023 10.3076 15.9527 10.371 15.8824C10.4345 15.8121 10.4977 15.7418 10.5681 15.6716C10.6233 15.6164 10.6804 15.6164 10.7649 15.6164C11.1391 15.736 11.3941 15.999 11.6521 16.2652C11.8792 16.4995 12.1091 16.7365 12.4248 16.8812C12.6956 17.0838 12.9141 17.1695 13.1214 17.2508C13.3449 17.3384 13.5555 17.4211 13.8036 17.6399C13.8914 17.737 13.9788 17.8544 14.0677 17.9734C14.2355 18.1983 14.4074 18.4287 14.5921 18.539C14.6484 18.5671 14.6765 18.6233 14.6765 18.7076C14.647 19.0979 14.618 19.2663 14.4499 19.4912ZM18.868 12.4095C21.7657 13.365 24.13 14.3205 25.6495 16.4843C27.7599 21.0087 19.7682 20.3905 16.9263 19.435C16.6732 19.3798 16.3635 19.1541 16.2791 18.9292C15.9694 18.311 16.0539 17.4685 16.3067 16.9901C16.3697 16.8185 16.4489 16.6533 16.5432 16.4967C16.6161 16.3765 16.6782 16.2501 16.7287 16.1189C16.8029 15.851 16.8098 15.5558 16.817 15.257C16.8316 14.6474 16.8468 14.0237 17.4321 13.5899C17.5046 13.5212 17.5706 13.4459 17.6292 13.365C17.6656 13.303 17.7023 13.2368 17.7395 13.169C17.9907 12.7143 18.2802 12.1895 18.868 12.4095ZM17.2359 18.5638C19.9371 19.2385 22.2445 19.5474 24.3836 18.6762C26.1565 17.6926 24.2713 16.0629 23.0893 15.2477C23.0629 15.2291 23.032 15.218 22.9998 15.2155C22.9676 15.2131 22.9353 15.2194 22.9064 15.2338C22.8776 15.2483 22.8531 15.2702 22.8358 15.2974C22.8184 15.3246 22.8087 15.356 22.8078 15.3882C22.7802 15.9786 22.8078 16.8489 22.9204 17.2712C22.9272 17.2877 22.9303 17.3055 22.9296 17.3233C22.9289 17.3412 22.9244 17.3587 22.9165 17.3746C22.9085 17.3906 22.8971 17.4047 22.8833 17.4159C22.8694 17.4272 22.8533 17.4353 22.836 17.4398L22.2451 17.6645C22.1607 17.7196 22.0762 17.6645 22.0481 17.5801C21.795 16.7654 21.8231 15.585 21.9076 14.6863C21.9352 14.6311 21.88 14.5457 21.8231 14.5179C21.4112 14.3084 20.9884 14.1207 20.5567 13.9556C20.5119 13.944 20.4645 13.9491 20.4231 13.9697C20.3818 13.9904 20.3493 14.0253 20.3318 14.0681C19.9377 15.0798 19.9377 16.4286 20.1347 17.2436C20.1623 17.328 20.1071 17.4123 20.0221 17.4404L19.4031 17.6091C19.3187 17.6366 19.2342 17.5815 19.2061 17.4966C18.9527 16.513 18.9527 14.9393 19.375 13.7591C19.3866 13.7144 19.3816 13.6669 19.3609 13.6256C19.3402 13.5843 19.3052 13.5518 19.2624 13.5342C19.1216 13.4791 18.9809 13.4499 18.8123 13.3937C18.7571 13.3661 18.6434 13.3937 18.6152 13.478C18.5846 13.5331 18.5559 13.5899 18.5275 13.6453C18.3991 13.8953 18.2777 14.1317 18.0244 14.293C17.8273 14.4616 17.7429 14.63 17.7429 14.6863C17.7042 14.7637 17.7186 15.0131 17.7315 15.235C17.7373 15.3359 17.7429 15.431 17.7429 15.5012C17.6877 16.1194 17.6303 16.4568 17.3772 16.8793C17.1241 17.3018 16.8705 17.7786 17.0113 18.34C17.0246 18.3942 17.0526 18.4438 17.0922 18.4833C17.1318 18.5227 17.1815 18.5506 17.2359 18.5638Z" fill="white"/>
</svg>
