<svg width="512" height="512" viewBox="0 0 512 512" fill="none" xmlns="http://www.w3.org/2000/svg">
<rect width="512" height="512" rx="120" fill="white"/>
<path fill-rule="evenodd" clip-rule="evenodd" d="M197.139 201.141L200.432 193.672L195.007 187.242L186.162 190.898L188.695 201.01L197.139 201.141ZM252.414 191.685L253.471 183.425L245.073 178.848L237.526 186.993L243.524 194.308L252.414 191.685ZM217.855 147.871L219.573 156.361L214.326 160.6L205.772 158.611L202.745 152.88L208.315 144.496L217.855 147.871Z" fill="#070707"/>
<path d="M200.432 193.672L202.284 194.489L202.794 193.334L201.979 192.368L200.432 193.672ZM197.139 201.141L197.108 203.165L198.45 203.186L198.991 201.958L197.139 201.141ZM195.007 187.242L196.554 185.937L195.6 184.807L194.234 185.372L195.007 187.242ZM186.162 190.898L185.389 189.028L183.775 189.695L184.199 191.389L186.162 190.898ZM188.695 201.01L186.732 201.501L187.11 203.009L188.664 203.033L188.695 201.01ZM253.471 183.425L255.478 183.683L255.654 182.311L254.439 181.649L253.471 183.425ZM252.414 191.685L252.988 193.626L254.254 193.252L254.422 191.943L252.414 191.685ZM245.073 178.848L246.041 177.071L244.658 176.318L243.588 177.473L245.073 178.848ZM237.526 186.993L236.042 185.617L234.843 186.911L235.961 188.275L237.526 186.993ZM243.524 194.308L241.959 195.591L242.81 196.629L244.097 196.249L243.524 194.308ZM219.573 156.361L220.845 157.935L221.8 157.164L221.557 155.96L219.573 156.361ZM217.855 147.871L219.839 147.47L219.611 146.346L218.529 145.963L217.855 147.871ZM214.326 160.6L213.869 162.571L214.83 162.794L215.598 162.174L214.326 160.6ZM205.772 158.611L203.983 159.556L204.415 160.373L205.315 160.582L205.772 158.611ZM202.745 152.88L201.059 151.76L200.394 152.762L200.956 153.825L202.745 152.88ZM208.315 144.496L208.99 142.588L207.502 142.062L206.63 143.376L208.315 144.496ZM198.581 192.856L195.287 200.325L198.991 201.958L202.284 194.489L198.581 192.856ZM193.461 188.546L198.886 194.977L201.979 192.368L196.554 185.937L193.461 188.546ZM186.936 192.768L195.781 189.112L194.234 185.372L185.389 189.028L186.936 192.768ZM190.658 200.518L188.125 190.407L184.199 191.389L186.732 201.501L190.658 200.518ZM197.17 199.118L188.726 198.986L188.664 203.033L197.108 203.165L197.17 199.118ZM251.463 183.168L250.407 191.428L254.422 191.943L255.478 183.683L251.463 183.168ZM244.104 180.625L252.503 185.202L254.439 181.649L246.041 177.071L244.104 180.625ZM239.011 188.368L246.557 180.224L243.588 177.473L236.042 185.617L239.011 188.368ZM245.089 193.026L239.091 185.71L235.961 188.275L241.959 195.591L245.089 193.026ZM251.841 189.744L242.95 192.367L244.097 196.249L252.988 193.626L251.841 189.744ZM221.557 155.96L219.839 147.47L215.872 148.272L217.59 156.762L221.557 155.96ZM215.598 162.174L220.845 157.935L218.301 154.787L213.054 159.025L215.598 162.174ZM205.315 160.582L213.869 162.571L214.784 158.629L206.23 156.64L205.315 160.582ZM200.956 153.825L203.983 159.556L207.562 157.666L204.534 151.935L200.956 153.825ZM206.63 143.376L201.059 151.76L204.431 154L210.001 145.616L206.63 143.376ZM218.529 145.963L208.99 142.588L207.641 146.404L217.181 149.778L218.529 145.963Z" fill="#070707"/>
<path d="M185.53 233.501L182.617 239.046L182.617 239.046L185.53 233.501ZM187.673 234.599L190.541 229.03L190.52 229.019L190.499 229.009L187.673 234.599ZM187.673 234.599L184.806 240.168L184.836 240.184L184.867 240.199L187.673 234.599ZM187.673 234.599L190.5 229.009L190.49 229.004L190.48 228.999L187.673 234.599ZM198.179 242.995L203.325 239.422L203.325 239.422L198.179 242.995ZM223.803 259.493L225.502 253.464L225.502 253.464L223.803 259.493ZM239.611 274.484L244.968 271.237L244.968 271.237L239.611 274.484ZM244.118 278.352L241.168 283.878L241.168 283.878L244.118 278.352ZM248.291 286.189L254.548 286.482L254.548 286.482L248.291 286.189ZM242.74 302.789L247.102 307.285L247.103 307.284L242.74 302.789ZM121.901 352.374L117.376 356.706L117.376 356.706L121.901 352.374ZM175.588 232.635L171.226 228.139L171.226 228.139L175.588 232.635ZM171.767 258.667L167.987 263.662L167.987 263.662L171.767 258.667ZM242.809 302.722L238.446 298.228L242.809 302.722ZM243.016 302.597L247.876 306.55L243.016 302.597ZM242.963 302.626L243.156 308.887L243.156 308.887L242.963 302.626ZM175.648 232.576L171.287 228.08L175.648 232.576ZM242.865 302.617L243.959 296.449L242.865 302.617ZM175.694 232.567L180.96 235.959L175.694 232.567ZM188.442 227.955C185.944 226.643 183.012 225.74 180.349 225.443C179.029 225.296 177.464 225.261 175.907 225.585C174.48 225.882 172.015 226.711 170.428 229.174L180.96 235.959C179.927 237.564 178.511 237.84 178.459 237.85C178.279 237.888 178.417 237.834 178.96 237.894C180.023 238.013 181.456 238.436 182.617 239.046L188.442 227.955ZM190.499 229.009C189.808 228.659 189.138 228.32 188.442 227.955L182.617 239.046C183.411 239.464 184.166 239.845 184.847 240.189L190.499 229.009ZM190.541 229.03L190.541 229.03L184.806 240.168L184.806 240.168L190.541 229.03ZM190.48 228.999L190.48 228.999L184.867 240.199L184.867 240.199L190.48 228.999ZM203.325 239.422C199.087 233.318 194.754 231.159 190.5 229.009L184.847 240.189C188.753 242.164 190.672 243.166 193.034 246.567L203.325 239.422ZM225.502 253.464C223.57 252.919 218.757 250.59 213.611 247.402C211.142 245.872 208.793 244.266 206.883 242.765C204.86 241.175 203.738 240.017 203.325 239.422L193.034 246.567C194.548 248.748 196.884 250.841 199.142 252.616C201.513 254.48 204.268 256.352 207.014 258.053C212.301 261.328 218.372 264.471 222.104 265.523L225.502 253.464ZM244.968 271.237C243.041 268.059 240.205 264.319 237.025 261.103C234.009 258.054 229.949 254.717 225.502 253.464L222.104 265.523C223.321 265.865 225.485 267.252 228.117 269.913C230.585 272.408 232.82 275.366 234.253 277.731L244.968 271.237ZM247.069 272.827C246.258 272.394 245.906 272.192 245.606 271.96C245.382 271.788 245.181 271.59 244.968 271.237L234.253 277.731C236.517 281.466 239.568 283.024 241.168 283.878L247.069 272.827ZM254.548 286.482C254.71 283.027 254.211 279.81 252.339 277.119C250.568 274.575 248.061 273.357 247.069 272.827L241.168 283.878C241.83 284.232 242.06 284.364 242.218 284.474C242.305 284.536 242.189 284.468 242.055 284.275C241.736 283.816 242.128 283.879 242.033 285.895L254.548 286.482ZM247.876 306.55C249.711 304.295 251.366 301.802 252.558 298.408C253.714 295.115 254.322 291.296 254.548 286.482L242.033 285.895C241.839 290.027 241.345 292.526 240.737 294.257C240.164 295.888 239.392 297.126 238.157 298.644L247.876 306.55ZM241.771 308.785C242.097 308.843 242.578 308.905 243.156 308.887L242.77 296.364C243.292 296.348 243.707 296.404 243.959 296.449L241.771 308.785ZM247.103 307.284L247.171 307.217L238.446 298.228L238.378 298.294L247.103 307.284ZM117.376 356.706C123.593 363.201 132.376 365.737 141.893 365.638C151.388 365.539 162.21 362.841 173.58 358.175C196.355 348.83 222.581 331.075 247.102 307.285L238.379 298.293C214.706 321.26 189.784 337.984 168.824 346.585C158.326 350.892 149.133 353.034 141.763 353.11C134.414 353.187 129.481 351.234 126.426 348.042L117.376 356.706ZM171.226 228.139C146.703 251.931 128.115 277.655 118.002 300.211C112.952 311.472 109.88 322.245 109.432 331.773C108.983 341.314 111.166 350.219 117.376 356.706L126.426 348.042C123.364 344.843 121.597 339.782 121.946 332.362C122.296 324.928 124.767 315.744 129.433 305.337C138.751 284.556 156.278 260.098 179.95 237.131L171.226 228.139ZM171.287 228.08L171.226 228.139L179.949 237.132L180.01 237.073L171.287 228.08ZM155.504 256.648C161.072 259.28 165.408 261.711 167.987 263.662L175.546 253.671C171.911 250.921 166.628 248.049 160.86 245.321L155.504 256.648ZM167.987 263.662C180.803 273.358 191.394 286.51 197.863 300.284L209.203 294.958C201.859 279.322 189.961 264.577 175.546 253.671L167.987 263.662ZM131.274 286.721C143.201 295.94 152.987 305.129 160.265 323.168L171.884 318.48C163.448 297.571 151.772 286.731 138.936 276.808L131.274 286.721ZM237.147 305.339C236.018 302.934 236.539 300.078 238.446 298.228L247.171 307.217C249.103 305.343 249.631 302.45 248.487 300.014L237.147 305.339ZM238.157 298.644C239.012 297.593 240.575 296.432 242.77 296.364L243.156 308.887C245.393 308.818 246.994 307.634 247.876 306.55L238.157 298.644ZM180.01 237.073C178.077 238.947 175.161 239.372 172.774 238.128L178.565 227.019C176.164 225.767 173.231 226.195 171.287 228.08L180.01 237.073ZM243.959 296.449C239.474 295.654 234.74 300.214 237.147 305.339L248.487 300.014C250.865 305.077 246.189 309.568 241.771 308.785L243.959 296.449ZM170.428 229.174C172.16 226.487 175.676 225.513 178.565 227.019L172.774 238.128C175.68 239.643 179.218 238.663 180.96 235.959L170.428 229.174Z" fill="#070707"/>
<path d="M124.77 300.263C127.291 295.325 132.578 285.338 138.835 275.91C141.732 271.545 144.212 268.296 147.574 263.742C152.811 256.648 158.825 249.859 164.532 243.827" stroke="#070707" stroke-width="12.5283"/>
<path d="M294.484 203.697L300.092 206.499L300.092 206.499L294.484 203.697ZM280.762 231.362L287.029 231.171L287.026 231.084L287.021 230.998L280.762 231.362ZM280.762 231.362L274.496 231.553L274.499 231.64L274.504 231.726L280.762 231.362ZM280.995 236.11L287.24 236.657L287.273 236.286L287.261 235.912L280.995 236.11ZM276.408 254.369L270.968 251.254L270.885 251.398L270.811 251.545L276.408 254.369ZM276.408 254.369L281.848 257.483L281.93 257.34L282.005 257.192L276.408 254.369ZM272.43 261.97L266.745 259.329L266.745 259.329L272.43 261.97ZM272.22 262.415L277.882 265.106L277.884 265.101L272.22 262.415ZM272.219 262.417L277.847 265.178L277.864 265.144L277.88 265.109L272.219 262.417ZM272.219 262.418L266.59 259.657L266.572 259.694L266.555 259.731L272.219 262.418ZM271.365 285.403L265.97 288.589L265.97 288.589L271.365 285.403ZM276.727 289.852L278.414 283.825L278.414 283.825L276.727 289.852ZM277.24 290.015L275.551 296.042L275.552 296.042L277.24 290.015ZM407.13 275.953L401.079 274.313L401.079 274.313L407.13 275.953ZM317.712 220.337L311.66 218.696L311.66 218.696L317.712 220.337ZM277.15 289.99L278.838 283.963L277.15 289.99ZM270.468 283.416L276.618 282.203L270.468 283.416ZM288.525 212.165L291.826 217.488L288.525 212.165ZM287.119 213.233L282.496 209.001L287.119 213.233ZM277.076 289.909L276.742 296.159L276.742 296.159L277.076 289.909ZM303.655 196.644L305.363 190.623L303.655 196.644ZM300.092 206.499C300.671 205.343 301.157 204.374 301.639 203.517C302.127 202.651 302.493 202.116 302.756 201.803C303.035 201.471 302.952 201.689 302.447 201.906C301.764 202.199 300.993 202.203 300.446 202.029L304.251 190.104C301.961 189.374 299.617 189.491 297.485 190.407C295.531 191.246 294.122 192.596 293.153 193.747C291.325 195.92 289.889 198.873 288.876 200.896L300.092 206.499ZM291.826 217.488C294.246 215.993 295.921 213.805 297.076 212.012C298.259 210.175 299.277 208.126 300.092 206.499L288.876 200.896C287.994 202.658 287.277 204.073 286.527 205.238C286.168 205.797 285.862 206.198 285.61 206.477C285.357 206.758 285.223 206.842 285.224 206.841L291.826 217.488ZM287.021 230.998C286.782 226.943 286.765 225.467 287.174 224.07C287.543 222.812 288.471 221.025 291.741 217.464L282.496 209.001C278.789 213.038 276.317 216.532 275.14 220.548C274.004 224.424 274.297 228.214 274.504 231.726L287.021 230.998ZM287.029 231.171L287.029 231.171L274.496 231.553L274.496 231.553L287.029 231.171ZM287.261 235.912C287.2 234.039 287.103 232.399 287.021 230.998L274.504 231.726C274.587 233.134 274.674 234.621 274.729 236.308L287.261 235.912ZM281.848 257.483C283.131 255.246 284.379 253.11 285.305 249.788C286.167 246.692 286.709 242.741 287.24 236.657L274.749 235.563C274.223 241.587 273.752 244.535 273.225 246.427C272.761 248.092 272.244 249.031 270.968 251.254L281.848 257.483ZM282.005 257.192L282.005 257.192L270.811 251.545L270.811 251.546L282.005 257.192ZM278.115 264.612C279.659 261.296 280.844 259.231 281.848 257.483L270.968 251.254C269.908 253.1 268.515 255.528 266.745 259.329L278.115 264.612ZM277.884 265.101C277.956 264.949 278.038 264.778 278.115 264.612L266.745 259.329C266.692 259.441 266.633 259.565 266.556 259.728L277.884 265.101ZM277.88 265.109L277.882 265.106L266.558 259.723L266.557 259.726L277.88 265.109ZM277.847 265.178L277.847 265.178L266.591 259.657L266.59 259.657L277.847 265.178ZM276.618 282.203C275.536 276.752 275.675 272.991 276.104 270.46C276.527 267.964 277.269 266.395 277.882 265.105L266.555 259.731C265.803 261.311 264.458 264.133 263.741 268.364C263.03 272.559 262.976 277.862 264.319 284.629L276.618 282.203ZM276.759 282.218C276.67 282.067 276.562 281.885 276.45 281.7L265.727 288.181C265.8 288.301 265.875 288.428 265.97 288.589L276.759 282.218ZM278.414 283.825C278.043 283.721 277.841 283.622 277.748 283.569C277.66 283.519 277.613 283.48 277.576 283.443C277.445 283.316 277.301 283.131 276.759 282.218L265.97 288.589C266.432 289.368 267.336 290.952 268.819 292.397C270.418 293.956 272.448 295.155 275.04 295.879L278.414 283.825ZM277.411 283.659C277.739 283.677 278.076 283.731 278.414 283.825L275.04 295.879C275.605 296.037 276.176 296.129 276.742 296.159L277.411 283.659ZM278.928 283.988L278.838 283.963L275.462 296.017L275.551 296.042L278.928 283.988ZM401.079 274.313C399.923 278.572 396.525 282.639 390.035 286.075C383.525 289.521 374.426 292.023 363.143 293.245C340.614 295.684 310.716 292.876 278.927 283.988L275.552 296.042C308.481 305.249 340.019 308.341 364.502 305.69C376.724 304.367 387.524 301.577 395.914 297.135C404.325 292.682 410.828 286.264 413.181 277.593L401.079 274.313ZM301.948 202.666C333.48 211.595 360.328 224.686 378.271 238.433C387.258 245.317 393.75 252.167 397.567 258.491C401.376 264.804 402.233 270.062 401.079 274.313L413.181 277.593C415.519 268.98 413.212 260.165 408.305 252.036C403.407 243.919 395.631 235.958 385.901 228.504C366.411 213.573 338.03 199.874 305.363 190.623L301.948 202.666ZM317.908 200.784C315.173 207.697 312.909 214.098 311.66 218.696L323.763 221.977C324.829 218.047 326.895 212.151 329.57 205.39L317.908 200.784ZM311.66 218.696C306.859 236.387 308.341 257.17 311.668 269.216L323.755 265.896C320.937 255.689 319.63 237.207 323.763 221.977L311.66 218.696ZM353.174 217.832C351.627 226.756 351.062 237.398 351.336 246.938C351.602 256.226 352.684 265.437 354.947 271.015L366.568 266.32C365.214 262.985 364.132 255.74 363.869 246.587C363.614 237.686 364.154 227.902 365.529 219.974L353.174 217.832ZM270.86 290.322C271.022 293.005 272.869 295.291 275.462 296.017L278.838 283.963C281.395 284.678 283.217 286.934 283.376 289.58L270.86 290.322ZM264.319 284.629C264.604 286.065 265.17 287.263 265.727 288.181L276.45 281.7C276.435 281.675 276.548 281.847 276.618 282.203L264.319 284.629ZM285.224 206.841C284.773 207.12 283.556 207.847 282.496 209.001L291.741 217.464C291.658 217.555 291.588 217.619 291.542 217.658C291.498 217.697 291.473 217.715 291.478 217.711C291.485 217.706 291.512 217.687 291.572 217.648C291.601 217.629 291.636 217.606 291.679 217.579C291.722 217.552 291.77 217.523 291.826 217.488L285.224 206.841ZM276.742 296.159C273.673 295.994 271.056 293.568 270.86 290.322L283.376 289.58C283.179 286.289 280.525 283.828 277.411 283.659L276.742 296.159ZM300.007 201.871C299.923 201.837 299.883 201.817 299.927 201.838C299.948 201.848 299.975 201.861 300.026 201.887C300.068 201.908 300.143 201.946 300.215 201.981C300.482 202.113 301.131 202.434 301.948 202.666L305.363 190.623C305.561 190.679 305.702 190.735 305.765 190.762C305.823 190.787 305.843 190.798 305.777 190.765C305.742 190.748 305.71 190.732 305.645 190.699C305.589 190.671 305.509 190.632 305.422 190.589C305.251 190.506 304.995 190.384 304.691 190.262L300.007 201.871Z" fill="#070707"/>
<path d="M312.203 199.278L340.259 209.448L353.937 216.135L379.898 231.739" stroke="#070707" stroke-width="12.5283"/>
</svg>
